mtllib ball.mtl
o generated_asset
v 0.000000 0.280000 0.000000
v 0.000000 0.280000 0.000000
v 0.000000 0.280000 0.000000
v -0.000000 0.280000 0.000000
v -0.000000 0.280000 0.000000
v -0.000000 0.280000 0.000000
v -0.000000 0.280000 -0.000000
v -0.000000 0.280000 -0.000000
v 0.000000 0.280000 -0.000000
v 0.000000 0.280000 -0.000000
v 0.070000 0.261244 0.000000
v 0.056631 0.261244 0.041145
v 0.021631 0.261244 0.066574
v -0.021631 0.261244 0.066574
v -0.056631 0.261244 0.041145
v -0.070000 0.261244 0.000000
v -0.056631 0.261244 -0.041145
v -0.021631 0.261244 -0.066574
v 0.021631 0.261244 -0.066574
v 0.056631 0.261244 -0.041145
v 0.121244 0.210000 0.000000
v 0.098088 0.210000 0.071265
v 0.037466 0.210000 0.115309
v -0.037466 0.210000 0.115309
v -0.098088 0.210000 0.071265
v -0.121244 0.210000 0.000000
v -0.098088 0.210000 -0.071265
v -0.037466 0.210000 -0.115309
v 0.037466 0.210000 -0.115309
v 0.098088 0.210000 -0.071265
v 0.140000 0.140000 0.000000
v 0.113262 0.140000 0.082290
v 0.043262 0.140000 0.133148
v -0.043262 0.140000 0.133148
v -0.113262 0.140000 0.082290
v -0.140000 0.140000 0.000000
v -0.113262 0.140000 -0.082290
v -0.043262 0.140000 -0.133148
v 0.043262 0.140000 -0.133148
v 0.113262 0.140000 -0.082290
v 0.121244 0.070000 0.000000
v 0.098088 0.070000 0.071265
v 0.037466 0.070000 0.115309
v -0.037466 0.070000 0.115309
v -0.098088 0.070000 0.071265
v -0.121244 0.070000 0.000000
v -0.098088 0.070000 -0.071265
v -0.037466 0.070000 -0.115309
v 0.037466 0.070000 -0.115309
v 0.098088 0.070000 -0.071265
v 0.070000 0.018756 0.000000
v 0.056631 0.018756 0.041145
v 0.021631 0.018756 0.066574
v -0.021631 0.018756 0.066574
v -0.056631 0.018756 0.041145
v -0.070000 0.018756 0.000000
v -0.056631 0.018756 -0.041145
v -0.021631 0.018756 -0.066574
v 0.021631 0.018756 -0.066574
v 0.056631 0.018756 -0.041145
v 0.000000 0.000000 0.000000
v 0.000000 0.000000 0.000000
v 0.000000 0.000000 0.000000
v -0.000000 0.000000 0.000000
v -0.000000 0.000000 0.000000
v -0.000000 0.000000 0.000000
v -0.000000 0.000000 -0.000000
v -0.000000 0.000000 -0.000000
v 0.000000 0.000000 -0.000000
v 0.000000 0.000000 -0.000000
usemtl ball
f 1 2 12 11
f 2 3 13 12
f 3 4 14 13
f 4 5 15 14
f 5 6 16 15
f 6 7 17 16
f 7 8 18 17
f 8 9 19 18
f 9 10 20 19
f 10 1 11 20
f 11 12 22 21
f 12 13 23 22
f 13 14 24 23
f 14 15 25 24
f 15 16 26 25
f 16 17 27 26
f 17 18 28 27
f 18 19 29 28
f 19 20 30 29
f 20 11 21 30
f 21 22 32 31
f 22 23 33 32
f 23 24 34 33
f 24 25 35 34
f 25 26 36 35
f 26 27 37 36
f 27 28 38 37
f 28 29 39 38
f 29 30 40 39
f 30 21 31 40
f 31 32 42 41
f 32 33 43 42
f 33 34 44 43
f 34 35 45 44
f 35 36 46 45
f 36 37 47 46
f 37 38 48 47
f 38 39 49 48
f 39 40 50 49
f 40 31 41 50
f 41 42 52 51
f 42 43 53 52
f 43 44 54 53
f 44 45 55 54
f 45 46 56 55
f 46 47 57 56
f 47 48 58 57
f 48 49 59 58
f 49 50 60 59
f 50 41 51 60
f 51 52 62 61
f 52 53 63 62
f 53 54 64 63
f 54 55 65 64
f 55 56 66 65
f 56 57 67 66
f 57 58 68 67
f 58 59 69 68
f 59 60 70 69
f 60 51 61 70
