mtllib player.mtl
o generated_asset
v 0.300000 0.250000 0.000000
v 0.212132 0.250000 0.212132
v 0.000000 0.250000 0.300000
v -0.212132 0.250000 0.212132
v -0.300000 0.250000 0.000000
v -0.212132 0.250000 -0.212132
v -0.000000 0.250000 -0.300000
v 0.212132 0.250000 -0.212132
v 0.300000 1.150000 0.000000
v 0.212132 1.150000 0.212132
v 0.000000 1.150000 0.300000
v -0.212132 1.150000 0.212132
v -0.300000 1.150000 0.000000
v -0.212132 1.150000 -0.212132
v -0.000000 1.150000 -0.300000
v 0.212132 1.150000 -0.212132
v 0.000000 1.580000 0.000000
v 0.000000 1.580000 0.000000
v 0.000000 1.580000 0.000000
v -0.000000 1.580000 0.000000
v -0.000000 1.580000 0.000000
v -0.000000 1.580000 -0.000000
v -0.000000 1.580000 -0.000000
v 0.000000 1.580000 -0.000000
v 0.141421 1.521421 0.000000
v 0.100000 1.521421 0.100000
v 0.000000 1.521421 0.141421
v -0.100000 1.521421 0.100000
v -0.141421 1.521421 0.000000
v -0.100000 1.521421 -0.100000
v -0.000000 1.521421 -0.141421
v 0.100000 1.521421 -0.100000
v 0.200000 1.380000 0.000000
v 0.141421 1.380000 0.141421
v 0.000000 1.380000 0.200000
v -0.141421 1.380000 0.141421
v -0.200000 1.380000 0.000000
v -0.141421 1.380000 -0.141421
v -0.000000 1.380000 -0.200000
v 0.141421 1.380000 -0.141421
v 0.141421 1.238579 0.000000
v 0.100000 1.238579 0.100000
v 0.000000 1.238579 0.141421
v -0.100000 1.238579 0.100000
v -0.141421 1.238579 0.000000
v -0.100000 1.238579 -0.100000
v -0.000000 1.238579 -0.141421
v 0.100000 1.238579 -0.100000
v 0.000000 1.180000 0.000000
v 0.000000 1.180000 0.000000
v 0.000000 1.180000 0.000000
v -0.000000 1.180000 0.000000
v -0.000000 1.180000 0.000000
v -0.000000 1.180000 -0.000000
v -0.000000 1.180000 -0.000000
v 0.000000 1.180000 -0.000000
v -0.200000 0.000000 -0.100000
v -0.040000 0.000000 -0.100000
v -0.040000 0.280000 -0.100000
v -0.200000 0.280000 -0.100000
v -0.200000 0.000000 0.100000
v -0.040000 0.000000 0.100000
v -0.040000 0.280000 0.100000
v -0.200000 0.280000 0.100000
v 0.040000 0.000000 -0.100000
v 0.200000 0.000000 -0.100000
v 0.200000 0.280000 -0.100000
v 0.040000 0.280000 -0.100000
v 0.040000 0.000000 0.100000
v 0.200000 0.000000 0.100000
v 0.200000 0.280000 0.100000
v 0.040000 0.280000 0.100000
v -0.180000 -0.050000 -0.130000
v -0.030000 -0.050000 -0.130000
v -0.030000 0.080000 -0.130000
v -0.180000 0.080000 -0.130000
v -0.180000 -0.050000 0.130000
v -0.030000 -0.050000 0.130000
v -0.030000 0.080000 0.130000
v -0.180000 0.080000 0.130000
v 0.030000 -0.050000 -0.130000
v 0.180000 -0.050000 -0.130000
v 0.180000 0.080000 -0.130000
v 0.030000 0.080000 -0.130000
v 0.030000 -0.050000 0.130000
v 0.180000 -0.050000 0.130000
v 0.180000 0.080000 0.130000
v 0.030000 0.080000 0.130000
usemtl shirt
f 1 2 10 9
f 2 3 11 10
f 3 4 12 11
f 4 5 13 12
f 5 6 14 13
f 6 7 15 14
f 7 8 16 15
f 8 1 9 16
f 8 7 6 5 4 3 2 1
f 9 10 11 12 13 14 15 16
usemtl skin
f 17 18 26 25
f 18 19 27 26
f 19 20 28 27
f 20 21 29 28
f 21 22 30 29
f 22 23 31 30
f 23 24 32 31
f 24 17 25 32
f 25 26 34 33
f 26 27 35 34
f 27 28 36 35
f 28 29 37 36
f 29 30 38 37
f 30 31 39 38
f 31 32 40 39
f 32 25 33 40
f 33 34 42 41
f 34 35 43 42
f 35 36 44 43
f 36 37 45 44
f 37 38 46 45
f 38 39 47 46
f 39 40 48 47
f 40 33 41 48
f 41 42 50 49
f 42 43 51 50
f 43 44 52 51
f 44 45 53 52
f 45 46 54 53
f 46 47 55 54
f 47 48 56 55
f 48 41 49 56
usemtl shorts
f 57 58 59 60
f 61 64 63 62
f 57 61 62 58
f 60 59 63 64
f 58 62 63 59
f 57 60 64 61
f 65 66 67 68
f 69 72 71 70
f 65 69 70 66
f 68 67 71 72
f 66 70 71 67
f 65 68 72 69
usemtl boots
f 73 74 75 76
f 77 80 79 78
f 73 77 78 74
f 76 75 79 80
f 74 78 79 75
f 73 76 80 77
f 81 82 83 84
f 85 88 87 86
f 81 85 86 82
f 84 83 87 88
f 82 86 87 83
f 81 84 88 85
